<?xml version="1.0" encoding="UTF-8"?>
<svg width="17.067" height="12.8" version="1.1" viewBox="0 0 17.067 12.8" xml:space="preserve" xmlns="http://www.w3.org/2000/svg" style="fill-rule:evenodd;fill:#fff"><g transform="matrix(1.3333 0 0 -1.3333 -295.99 1951.4)"><g transform="translate(233.99 1462)"><path d="m0 0h-11.2c-0.443 0-0.8 0.358-0.8 0.8s0.357 0.8 0.8 0.8h11.2c0.442 0 0.8-0.358 0.8-0.8s-0.358-0.8-0.8-0.8" /></g><path transform="translate(233.99 1458)" d="m0 0h-11.2c-0.443 0-0.8 0.358-0.8 0.8 0 0.441 0.357 0.8 0.8 0.8h11.2c0.442 0 0.8-0.359 0.8-0.8 0-0.442-0.358-0.8-0.8-0.8"/><g transform="translate(233.99 1454)"><path d="m0 0h-11.2c-0.443 0-0.8 0.358-0.8 0.8s0.357 0.8 0.8 0.8h11.2c0.442 0 0.8-0.358 0.8-0.8s-0.358-0.8-0.8-0.8"/></g></g></svg>
