<svg width="17" height="18" viewBox="0 0 17 18" fill="none" xmlns="http://www.w3.org/2000/svg">
<path d="M14.5297 15.8506C12.8014 17.5788 8.40602 15.9912 4.70916 12.2943C1.0123 8.59748 -0.570777 4.2066 1.15745 2.47837L2.94918 0.686644C3.26217 0.373658 3.7702 0.373658 4.08319 0.686644L5.91121 2.51466C6.22419 2.82765 6.22419 3.33568 5.91121 3.64867L4.6638 4.89608C3.70216 5.85772 4.54586 8.30263 6.60068 10.3575C8.6555 12.4123 11.1458 13.3013 12.1074 12.3397L13.3548 11.0923C13.6678 10.7793 14.1758 10.7793 14.4888 11.0923L16.3169 12.9203C16.6298 13.2333 16.6298 13.7413 16.3169 14.0543L14.5297 15.8506Z" fill="white"/>
<path d="M14.2125 15.5285C14.1808 15.5603 14.149 15.592 14.1127 15.6192C14.0991 15.6328 14.0175 15.6964 14.0538 15.6691C14.0901 15.6419 13.9903 15.7145 13.9767 15.7236C13.9404 15.7462 13.8996 15.7735 13.8633 15.7961C13.7907 15.837 13.7136 15.8778 13.6365 15.9095C13.7136 15.8733 13.6047 15.9186 13.5775 15.9322C13.5321 15.9504 13.4868 15.964 13.4414 15.9776C13.3552 16.0048 13.269 16.0229 13.1829 16.0411C13.133 16.0502 13.0876 16.0592 13.0377 16.0683C13.0332 16.0683 12.9651 16.0774 13.0105 16.0728C13.0604 16.0683 12.9697 16.0774 12.9606 16.0774C12.7519 16.0955 12.5478 16.1001 12.3437 16.091C11.8992 16.0683 11.4909 15.9867 11.0282 15.8506C10.5202 15.7054 10.0258 15.5104 9.5495 15.279C7.1318 14.1087 5.0044 12.2263 3.37597 10.0989C2.63206 9.12818 1.96073 8.06222 1.49352 6.92821C1.1261 6.03915 0.867546 5.13194 0.921979 4.20206C0.926515 4.15216 0.93105 4.09773 0.935586 4.04783C0.935586 4.02515 0.940123 4.00247 0.944659 3.98433C0.944659 3.9934 0.935587 4.05237 0.944659 3.99794C0.958267 3.90268 0.976411 3.80289 1.00363 3.70763C1.02631 3.62145 1.04899 3.53526 1.08074 3.45361C1.08981 3.43093 1.13064 3.32207 1.11703 3.35836C1.10342 3.39464 1.14878 3.29032 1.15785 3.27217C1.19414 3.19506 1.2395 3.12248 1.28486 3.05444C1.30754 3.01815 1.33476 2.98187 1.36197 2.94558C1.31208 3.01362 1.38012 2.9229 1.39826 2.90475C1.44816 2.84579 1.50713 2.79135 1.56156 2.73692C2.05145 2.24703 2.5368 1.76167 3.0267 1.27178C3.16278 1.1357 3.32154 0.913438 3.53019 0.913438C3.74339 0.913438 3.90215 1.14024 4.03823 1.27632C4.53266 1.77075 5.02255 2.26064 5.51697 2.75506C5.68934 2.92743 5.78914 3.12702 5.60316 3.34021C5.42172 3.54887 5.20852 3.73485 5.01347 3.9299C4.53719 4.40618 3.9974 4.8371 3.87493 5.53565C3.68896 6.59254 4.13349 7.68573 4.65967 8.5884C5.37182 9.80859 6.36067 10.8609 7.48561 11.7137C8.41549 12.4213 9.51321 13.0246 10.688 13.1652C11.1326 13.2197 11.5862 13.1743 11.9944 12.9838C12.2484 12.8659 12.439 12.6708 12.634 12.4758C12.8971 12.2127 13.1647 11.9451 13.4278 11.682C13.5911 11.5187 13.7725 11.2556 14.0311 11.3282C14.208 11.3781 14.3713 11.6003 14.4938 11.7273C14.7659 11.9995 15.0336 12.2671 15.3057 12.5393C15.5234 12.757 15.7366 12.9702 15.9544 13.1879C16.1222 13.3558 16.1857 13.5599 16.0088 13.7549C15.5779 14.2267 15.1016 14.6621 14.648 15.1157C14.4938 15.2473 14.3532 15.3879 14.2125 15.5285C13.7998 15.9413 14.4393 16.5854 14.8521 16.1681C15.2966 15.7236 15.7457 15.2745 16.1902 14.83C16.349 14.6712 16.5123 14.5215 16.662 14.3537C17.1247 13.8366 17.1065 13.0972 16.6348 12.5937C16.1857 12.1174 15.7049 11.6638 15.2377 11.1966C15.0744 11.0333 14.9156 10.8519 14.7342 10.7022C14.2171 10.2713 13.4958 10.3257 13.0196 10.7793C12.5886 11.1875 12.1804 11.623 11.7585 12.0403C11.7449 12.0539 11.7313 12.0675 11.7177 12.0766C11.6678 12.122 11.7767 12.0358 11.7177 12.0766C11.686 12.0993 11.6542 12.1174 11.6225 12.1356C11.5953 12.1492 11.4955 12.1991 11.5726 12.1673C11.5227 12.1855 11.4728 12.2036 11.4229 12.2172C11.3775 12.2308 11.3276 12.2399 11.2823 12.249C11.1825 12.2717 11.2868 12.2535 11.2097 12.258C11.1008 12.2671 10.9965 12.2671 10.8876 12.2626C10.4658 12.2399 9.94414 12.0811 9.50868 11.8816C8.23859 11.2964 7.13634 10.3574 6.24727 9.28695C5.82089 8.77437 5.44893 8.21191 5.15863 7.60861C5.04069 7.36821 4.94543 7.11872 4.86832 6.86471C4.80028 6.64244 4.74585 6.37935 4.73224 6.20698C4.72317 6.09812 4.72317 5.98925 4.72771 5.88039C4.73224 5.83503 4.73224 5.78967 4.73678 5.74884C4.72771 5.83049 4.75038 5.68534 4.75492 5.65812C4.76399 5.61276 4.78214 5.5674 4.79575 5.52204C4.80028 5.5039 4.80935 5.48575 4.81389 5.46307C4.78667 5.54019 4.80482 5.48122 4.81389 5.46307C4.83203 5.42678 4.85018 5.39503 4.86832 5.35874C4.88193 5.33606 4.96358 5.22266 4.90915 5.29524C5.08152 5.08658 5.29471 4.90514 5.48522 4.71463C5.72563 4.47422 5.96604 4.23835 6.20191 3.99794C6.62376 3.56701 6.7417 2.89568 6.38789 2.38311C6.24274 2.17445 6.03862 1.99755 5.85718 1.81611C5.57141 1.53034 5.28564 1.24457 5.0044 0.963334C4.80935 0.768285 4.61884 0.5687 4.41926 0.378187C3.97019 -0.0527359 3.28525 -0.13892 2.77268 0.242106C2.57309 0.391795 2.40526 0.582308 2.23289 0.759213C1.94258 1.04952 1.65228 1.33982 1.35744 1.63467C0.899298 2.0928 0.459304 2.51012 0.218894 3.13156C-0.112236 3.9934 -0.0215154 4.98679 0.187142 5.86678C0.468376 7.03254 1.00363 8.14387 1.6296 9.15994C3.14463 11.623 5.29924 13.7821 7.7487 15.3153C8.7693 15.9549 9.88063 16.4992 11.0509 16.7941C11.9355 17.0163 12.9334 17.1207 13.8134 16.8031C14.1989 16.6625 14.5527 16.4584 14.8476 16.1681C15.2694 15.7644 14.6299 15.1203 14.2125 15.5285Z" fill="white"/>
</svg>
