<svg width="8" height="13" viewBox="0 0 8 13" fill="none" xmlns="http://www.w3.org/2000/svg">
<path d="M1.67572 0.262846C1.26861 -0.110347 0.636038 -0.0828435 0.262846 0.324275C-0.110347 0.731394 -0.0828435 1.36396 0.324275 1.73715L1.67572 0.262846ZM7 6.5L7.67572 7.23715C7.88235 7.04774 8 6.78031 8 6.5C8 6.21969 7.88235 5.95226 7.67572 5.76285L7 6.5ZM0.324275 11.2628C-0.0828435 11.636 -0.110347 12.2686 0.262846 12.6757C0.636038 13.0828 1.26861 13.1103 1.67572 12.7372L0.324275 11.2628ZM0.324275 1.73715L6.32428 7.23715L7.67572 5.76285L1.67572 0.262846L0.324275 1.73715ZM6.32428 5.76285L0.324275 11.2628L1.67572 12.7372L7.67572 7.23715L6.32428 5.76285Z" fill="#008080"/>
</svg>
