<svg width="20" height="20" viewBox="0 0 20 20" fill="none" xmlns="http://www.w3.org/2000/svg">
<path d="M10.625 18.75C9.01042 18.75 7.49349 18.3594 6.07422 17.5781L0 20L2.42188 13.9258C1.64062 12.5065 1.25 10.9896 1.25 9.375C1.25 8.09896 1.4974 6.88477 1.99219 5.73242C2.48698 4.58008 3.1543 3.58398 3.99414 2.74414C4.83398 1.9043 5.83008 1.23698 6.98242 0.742188C8.13477 0.247396 9.34896 0 10.625 0C11.901 0 13.1152 0.247396 14.2676 0.742188C15.4199 1.23698 16.416 1.9043 17.2559 2.74414C18.0957 3.58398 18.763 4.58008 19.2578 5.73242C19.7526 6.88477 20 8.09896 20 9.375C20 10.651 19.7526 11.8652 19.2578 13.0176C18.763 14.1699 18.0957 15.166 17.2559 16.0059C16.416 16.8457 15.4199 17.513 14.2676 18.0078C13.1152 18.5026 11.901 18.75 10.625 18.75ZM10.625 2.5C9.375 2.5 8.22266 2.80599 7.16797 3.41797C6.11328 4.02995 5.27995 4.86328 4.66797 5.91797C4.05599 6.97266 3.75 8.125 3.75 9.375C3.75 10.625 4.05599 11.7773 4.66797 12.832C5.27995 13.8867 6.11328 14.7201 7.16797 15.332C8.22266 15.944 9.375 16.25 10.625 16.25C11.875 16.25 13.0273 15.944 14.082 15.332C15.1367 14.7201 15.9701 13.8867 16.582 12.832C17.194 11.7773 17.5 10.625 17.5 9.375C17.5 8.125 17.194 6.97266 16.582 5.91797C15.9701 4.86328 15.1367 4.02995 14.082 3.41797C13.0273 2.80599 11.875 2.5 10.625 2.5ZM14.0039 13.3203C13.4961 13.8281 12.7051 13.903 11.6309 13.5449C10.5566 13.1868 9.51497 12.5033 8.50586 11.4941C7.49674 10.485 6.81315 9.44336 6.45508 8.36914C6.09701 7.29492 6.17188 6.50391 6.67969 5.99609L7.59766 5.07812C7.67578 5 7.80924 5.00977 7.99805 5.10742C8.18685 5.20508 8.35938 5.36458 8.51562 5.58594C8.67188 5.80729 8.75 6.02865 8.75 6.25V7.5L8.125 8.20312C8.28125 8.78906 8.78581 9.50846 9.63867 10.3613C10.4915 11.2142 11.2109 11.7188 11.7969 11.875L12.5 11.25H13.75C13.9714 11.25 14.1927 11.3281 14.4141 11.4844C14.6354 11.6406 14.7949 11.8132 14.8926 12.002C14.9902 12.1908 15 12.3242 14.9219 12.4023L14.0039 13.3203Z" fill="white"/>
</svg>
